<svg width="30" height="30" viewBox="0 0 30 30" fill="none" xmlns="http://www.w3.org/2000/svg">
<g clip-path="url(#clip0_1_26)">
<rect width="30" height="30" fill="white"/>
<path d="M13.252 9.136C13.9987 9.136 14.5307 9.21067 14.848 9.36C15.184 9.49067 15.352 9.74267 15.352 10.116C15.352 10.62 14.54 11.1333 12.916 11.656C12.9533 13.0747 12.972 14.4373 12.972 15.744C12.972 17.032 12.8693 18.0027 12.664 18.656C12.4587 19.2907 12.132 19.608 11.684 19.608C11.236 19.608 10.8813 19.384 10.62 18.936C10.3773 18.4693 10.172 17.7133 10.004 16.668C9.85467 15.6227 9.696 14.2413 9.528 12.524C7.624 12.9533 6.252 13.2987 5.412 13.56C3.956 17.592 2.98533 19.608 2.5 19.608C2.108 19.608 1.58533 19.3467 0.932 18.824C0.297333 18.3013 -0.02 17.76 -0.02 17.2C-0.02 16.8827 0.344 15.8933 1.072 14.232C0.754667 14.0267 0.474667 13.7373 0.232 13.364C0.00800006 12.972 -0.104 12.5987 -0.104 12.244C-0.104 11.628 0.82 11.04 2.668 10.48C2.81733 10.1067 2.96667 9.68667 3.116 9.22C3.284 8.73467 3.68533 7.61467 4.32 5.86C4.97333 4.10533 5.48667 2.64 5.86 1.464C6.028 0.903999 6.60667 0.381332 7.596 -0.104002C8.604 -0.589334 9.388 -0.832 9.948 -0.832C10.6013 -0.832 11.18 0.0733329 11.684 1.884C12.2067 3.69467 12.5707 6.112 12.776 9.136H13.252ZM6.784 9.612C7.344 9.53733 8.156 9.444 9.22 9.332C9.164 8.79067 9.07067 7.86667 8.94 6.56C8.828 5.25333 8.744 4.31067 8.688 3.732C8.37067 4.77733 7.736 6.73733 6.784 9.612Z" fill="#DABFFF"/>
<path d="M26.731 -0.663001C27.2723 -0.663001 27.862 -0.179668 28.5 0.786999C29.138 1.73433 29.457 2.51733 29.457 3.136C29.457 3.75467 29.3313 4.064 29.08 4.064C28.964 4.064 28.7127 4.02533 28.326 3.948C27.9587 3.87067 27.6397 3.832 27.369 3.832C26.4023 3.832 25.2713 4.45067 23.976 5.688C22.6807 6.92533 21.569 8.40433 20.641 10.125C19.7323 11.8457 19.278 13.3343 19.278 14.591C19.278 15.2097 19.3747 15.664 19.568 15.954C19.7613 16.2247 20.1093 16.36 20.612 16.36C21.946 16.36 23.2993 16.157 24.672 15.751C26.0447 15.345 27.1757 14.939 28.065 14.533C28.9543 14.1077 29.457 13.895 29.573 13.895C29.7083 13.895 29.834 14.011 29.95 14.243C30.0853 14.4557 30.153 14.7167 30.153 15.026C30.153 15.6833 29.631 16.4663 28.587 17.375C27.543 18.2643 26.2767 19.028 24.788 19.666C23.3187 20.304 21.9847 20.623 20.786 20.623C19.5873 20.623 18.321 19.898 16.987 18.448C15.6723 16.998 15.015 15.6157 15.015 14.301C15.015 12.4643 15.6047 10.3763 16.784 8.037C17.9633 5.67833 19.481 3.63867 21.337 1.918C23.2123 0.197332 25.0103 -0.663001 26.731 -0.663001Z" fill="#4F518C"/>
<path d="M20.125 25.5C20.125 26.5333 19.55 27.55 18.4 28.55C17.2667 29.55 15.8833 30.35 14.25 30.95C12.6333 31.5333 11.0917 31.825 9.625 31.825C8.99167 31.825 8.25 31.4417 7.4 30.675C6.55 29.8917 6.125 29.25 6.125 28.75C6.125 28.4667 6.18333 28.2417 6.3 28.075C6.43333 27.9083 6.58333 27.825 6.75 27.825C6.91667 27.825 7.28333 27.9667 7.85 28.25C8.43333 28.5167 8.86667 28.65 9.15 28.65C9.45 28.65 9.74167 28.625 10.025 28.575C9.60833 28.4083 9.19167 28.1167 8.775 27.7C8.35833 27.2833 8.15 26.8833 8.15 26.5C8.15 26.3333 8.425 25.125 8.975 22.875C9.525 20.6083 9.81667 18.675 9.85 17.075C9.55 16.7917 9.275 16.45 9.025 16.05C8.79167 15.6333 8.675 15.325 8.675 15.125C8.675 14.6583 9.04167 14.2833 9.775 14C10.5083 13.7167 11.425 13.575 12.525 13.575C14.8583 13.575 16.725 13.8833 18.125 14.5C19.5417 15.1167 20.25 16.1 20.25 17.45C20.25 18.3 19.8917 19.1667 19.175 20.05C18.4583 20.9333 17.5167 21.7417 16.35 22.475L16.6 22.55C17.6 22.8167 18.4333 23.2167 19.1 23.75C19.7833 24.2667 20.125 24.85 20.125 25.5ZM15.7 16.775C15.1833 16.775 13.9667 16.9583 12.05 17.325C12.65 17.9917 12.95 18.55 12.95 19C12.95 19.4333 12.8083 20.2417 12.525 21.425C12.7917 21.225 13.2667 20.9333 13.95 20.55C14.6333 20.1667 15.0583 19.9167 15.225 19.8C15.4083 19.6667 15.65 19.475 15.95 19.225C16.5167 18.775 16.8 18.2583 16.8 17.675C16.8 17.075 16.4333 16.775 15.7 16.775ZM16.975 25.4C16.975 25.0667 16.4917 24.7833 15.525 24.55C14.575 24.3 13.7833 24.175 13.15 24.175C12.8 24.175 12.425 23.9167 12.025 23.4C11.275 26.4833 10.825 28.175 10.675 28.475C12.075 28.175 13.475 27.7167 14.875 27.1C16.275 26.4833 16.975 25.9167 16.975 25.4Z" fill="#907AD6"/>
</g>
<defs>
<clipPath id="clip0_1_26">
<rect width="30" height="30" fill="white"/>
</clipPath>
</defs>
</svg>
